<svg width="21" height="20" viewBox="0 0 21 20" fill="none" xmlns="http://www.w3.org/2000/svg">
<g id="flat-color-icons:google">
<path id="Vector" d="M18.6726 8.36788H18.0013V8.33329H10.5013V11.6666H15.2109C14.5238 13.607 12.6776 15 10.5013 15C7.74005 15 5.5013 12.7612 5.5013 9.99996C5.5013 7.23871 7.74005 4.99996 10.5013 4.99996C11.7759 4.99996 12.9355 5.48079 13.8184 6.26621L16.1755 3.90913C14.6871 2.52204 12.6963 1.66663 10.5013 1.66663C5.89922 1.66663 2.16797 5.39788 2.16797 9.99996C2.16797 14.602 5.89922 18.3333 10.5013 18.3333C15.1034 18.3333 18.8346 14.602 18.8346 9.99996C18.8346 9.44121 18.7771 8.89579 18.6726 8.36788Z" fill="#FFC107"/>
<path id="Vector_2" d="M3.12793 6.12121L5.86585 8.12913C6.60668 6.29496 8.40085 4.99996 10.5004 4.99996C11.775 4.99996 12.9346 5.48079 13.8175 6.26621L16.1746 3.90913C14.6863 2.52204 12.6954 1.66663 10.5004 1.66663C7.2996 1.66663 4.52376 3.47371 3.12793 6.12121Z" fill="#FF3D00"/>
<path id="Vector_3" d="M10.5008 18.3332C12.6533 18.3332 14.6091 17.5095 16.0879 16.1699L13.5087 13.9874C12.6439 14.6451 11.5872 15.0008 10.5008 14.9999C8.33328 14.9999 6.49286 13.6178 5.79953 11.6891L3.08203 13.7828C4.4612 16.4816 7.26203 18.3332 10.5008 18.3332Z" fill="#4CAF50"/>
<path id="Vector_4" d="M18.6712 8.36771H18V8.33313H10.5V11.6665H15.2096C14.8809 12.59 14.2889 13.397 13.5067 13.9877L13.5079 13.9869L16.0871 16.1694C15.9046 16.3352 18.8333 14.1665 18.8333 9.9998C18.8333 9.44105 18.7758 8.89563 18.6712 8.36771Z" fill="#1976D2"/>
</g>
</svg>
