<svg width="20" height="20" viewBox="0 0 20 20" fill="none" xmlns="http://www.w3.org/2000/svg">
<g id="Frame">
<path id="Vector" d="M3.3173 6.85219C2.53768 7.77234 1.95715 8.84403 1.6123 9.99969C2.68897 13.6147 6.0373 16.2497 10.0006 16.2497C10.8281 16.2497 11.6281 16.1347 12.3865 15.9205M5.19064 5.18969C6.61784 4.24791 8.29071 3.7471 10.0006 3.74969C13.964 3.74969 17.3115 6.38469 18.3881 9.99803C17.7981 11.9725 16.5315 13.676 14.8106 14.8097M5.19064 5.18969L2.50064 2.49969M5.19064 5.18969L8.2323 8.23136M14.8106 14.8097L17.5006 17.4997M14.8106 14.8097L11.769 11.768C12.0011 11.5359 12.1853 11.2602 12.3109 10.9569C12.4366 10.6536 12.5013 10.3284 12.5013 10.0001C12.5013 9.67178 12.4366 9.34666 12.3109 9.04332C12.1853 8.73998 12.0011 8.46436 11.769 8.23219C11.5368 8.00003 11.2612 7.81586 10.9578 7.69022C10.6545 7.56457 10.3294 7.4999 10.0011 7.4999C9.67272 7.4999 9.3476 7.56457 9.04426 7.69022C8.74092 7.81586 8.4653 8.00003 8.23314 8.23219M11.7681 11.7672L8.23397 8.23303" stroke="white" stroke-opacity="0.72" stroke-width="1.25" stroke-linecap="round" stroke-linejoin="round"/>
</g>
</svg>
