<svg width="20" height="20" viewBox="0 0 20 20" fill="none" xmlns="http://www.w3.org/2000/svg">
<g id="mdi:github">
<path id="Vector" d="M9.99935 1.66684C8.905 1.66684 7.82137 1.88239 6.81032 2.30118C5.79927 2.71997 4.88061 3.33379 4.10679 4.10762C2.54399 5.67042 1.66602 7.79004 1.66602 10.0002C1.66602 13.6835 4.05768 16.8085 7.36602 17.9168C7.78268 17.9835 7.91602 17.7252 7.91602 17.5002V16.0918C5.60768 16.5918 5.11602 14.9752 5.11602 14.9752C4.73268 14.0085 4.19102 13.7502 4.19102 13.7502C3.43268 13.2335 4.24935 13.2502 4.24935 13.2502C5.08268 13.3085 5.52435 14.1085 5.52435 14.1085C6.24935 15.3752 7.47435 15.0002 7.94935 14.8002C8.02435 14.2585 8.24102 13.8918 8.47435 13.6835C6.62435 13.4752 4.68268 12.7585 4.68268 9.58351C4.68268 8.65851 4.99935 7.91684 5.54102 7.32517C5.45768 7.11684 5.16602 6.25017 5.62435 5.12517C5.62435 5.12517 6.32435 4.90017 7.91602 5.97517C8.57435 5.79184 9.29102 5.70017 9.99935 5.70017C10.7077 5.70017 11.4243 5.79184 12.0827 5.97517C13.6743 4.90017 14.3743 5.12517 14.3743 5.12517C14.8327 6.25017 14.541 7.11684 14.4577 7.32517C14.9993 7.91684 15.316 8.65851 15.316 9.58351C15.316 12.7668 13.366 13.4668 11.5077 13.6752C11.8077 13.9335 12.0827 14.4418 12.0827 15.2168V17.5002C12.0827 17.7252 12.216 17.9918 12.641 17.9168C15.9493 16.8002 18.3327 13.6835 18.3327 10.0002C18.3327 8.90582 18.1171 7.82219 17.6983 6.81114C17.2796 5.8001 16.6657 4.88144 15.8919 4.10762C15.1181 3.33379 14.1994 2.71997 13.1884 2.30118C12.1773 1.88239 11.0937 1.66684 9.99935 1.66684Z" fill="white"/>
</g>
</svg>
